<?xml version="1.0" encoding="utf-8"?>
<!-- Generator: Adobe Illustrator 27.5.0, SVG Export Plug-In . SVG Version: 6.00 Build 0)  -->
<svg version="1.1" xmlns="http://www.w3.org/2000/svg" xmlns:xlink="http://www.w3.org/1999/xlink" x="0px" y="0px"
	 viewBox="0 0 800 800" style="enable-background:new 0 0 800 800;" xml:space="preserve">
<g id="Background">
	<rect style="fill:#FFFFFF;" width="800" height="800"/>
</g>
<g id="Objects">
	<g>
		<g>
			<g>
				<path style="fill:#505050;" d="M288.492,782.607v-0.258c-0.349,0.398-0.692,0.725-1.031,0.973
					c-0.338,0.252-0.706,0.441-1.102,0.57c-0.396,0.133-0.827,0.195-1.296,0.195c-0.621,0-1.196-0.131-1.725-0.393
					c-0.528-0.264-0.986-0.639-1.372-1.127c-0.387-0.486-0.68-1.059-0.879-1.719c-0.199-0.658-0.299-1.371-0.299-2.137
					c0-1.621,0.396-2.885,1.188-3.791c0.792-0.904,1.833-1.357,3.125-1.357c0.746,0,1.377,0.129,1.89,0.385
					c0.513,0.256,1.013,0.652,1.501,1.182v-3.826c0-0.533,0.105-0.934,0.318-1.207c0.212-0.272,0.514-0.408,0.907-0.408
					c0.393,0,0.694,0.125,0.907,0.375c0.212,0.252,0.318,0.619,0.318,1.107v11.436c0,0.494-0.113,0.863-0.342,1.111
					c-0.228,0.246-0.522,0.369-0.883,0.369c-0.354,0-0.647-0.127-0.879-0.383C288.607,783.447,288.492,783.082,288.492,782.607z
					 M283.392,778.799c0,0.703,0.109,1.301,0.328,1.795c0.219,0.494,0.518,0.865,0.897,1.115c0.38,0.25,0.795,0.377,1.244,0.377
					c0.456,0,0.872-0.119,1.25-0.357c0.376-0.236,0.677-0.602,0.902-1.092c0.225-0.49,0.337-1.105,0.337-1.838
					c0-0.691-0.112-1.285-0.337-1.783c-0.225-0.496-0.528-0.875-0.912-1.139c-0.383-0.262-0.803-0.393-1.258-0.393
					c-0.475,0-0.899,0.135-1.273,0.402c-0.374,0.27-0.663,0.654-0.869,1.158C283.494,777.549,283.392,778.133,283.392,778.799z"/>
				<path style="fill:#505050;" d="M299.926,779.455h-5.071c0.006,0.588,0.125,1.107,0.356,1.557
					c0.23,0.449,0.538,0.789,0.921,1.016c0.383,0.229,0.806,0.342,1.268,0.342c0.31,0,0.593-0.035,0.85-0.107
					c0.257-0.074,0.505-0.188,0.746-0.344c0.241-0.154,0.462-0.32,0.664-0.498c0.202-0.178,0.464-0.42,0.788-0.723
					c0.133-0.113,0.323-0.172,0.571-0.172c0.266,0,0.48,0.074,0.645,0.221c0.164,0.146,0.248,0.35,0.248,0.617
					c0,0.234-0.093,0.506-0.275,0.82c-0.185,0.314-0.462,0.615-0.831,0.902c-0.372,0.289-0.836,0.527-1.397,0.717
					c-0.56,0.191-1.204,0.285-1.933,0.285c-1.665,0-2.96-0.475-3.884-1.424c-0.924-0.949-1.386-2.238-1.386-3.865
					c0-0.768,0.113-1.479,0.341-2.133c0.229-0.656,0.561-1.217,0.997-1.685c0.437-0.469,0.975-0.828,1.615-1.078
					c0.639-0.25,1.349-0.375,2.127-0.375c1.013,0,1.882,0.213,2.606,0.641c0.726,0.428,1.27,0.98,1.63,1.656
					c0.36,0.678,0.542,1.369,0.542,2.07c0,0.654-0.187,1.076-0.56,1.27C301.13,779.357,300.604,779.455,299.926,779.455z
					 M294.854,777.982h4.702c-0.063-0.887-0.303-1.551-0.717-1.99c-0.415-0.441-0.961-0.66-1.638-0.66
					c-0.646,0-1.177,0.223-1.591,0.668C295.195,776.447,294.944,777.107,294.854,777.982z"/>
				<path style="fill:#505050;" d="M311.741,780.697c0,0.715-0.173,1.328-0.522,1.838c-0.348,0.51-0.862,0.896-1.543,1.16
					c-0.68,0.262-1.508,0.393-2.483,0.393c-0.931,0-1.729-0.143-2.394-0.428c-0.665-0.283-1.156-0.641-1.472-1.066
					c-0.317-0.43-0.475-0.857-0.475-1.289c0-0.285,0.101-0.527,0.304-0.73c0.202-0.201,0.459-0.303,0.77-0.303
					c0.271,0,0.48,0.066,0.626,0.199s0.286,0.32,0.418,0.559c0.266,0.465,0.585,0.807,0.956,1.037
					c0.37,0.227,0.874,0.342,1.515,0.342c0.519,0,0.945-0.117,1.277-0.348c0.332-0.232,0.498-0.496,0.498-0.793
					c0-0.457-0.172-0.787-0.518-0.996c-0.345-0.209-0.914-0.41-1.705-0.6c-0.893-0.221-1.619-0.455-2.18-0.699
					c-0.561-0.242-1.008-0.565-1.344-0.963c-0.336-0.398-0.504-0.891-0.504-1.473c0-0.518,0.155-1.01,0.465-1.473
					c0.31-0.461,0.768-0.83,1.373-1.106c0.604-0.275,1.333-0.414,2.188-0.414c0.671,0,1.275,0.07,1.809,0.211
					c0.536,0.137,0.983,0.326,1.34,0.56c0.358,0.232,0.63,0.492,0.816,0.777c0.187,0.285,0.28,0.563,0.28,0.836
					c0,0.297-0.1,0.541-0.298,0.732c-0.199,0.188-0.482,0.285-0.851,0.285c-0.266,0-0.492-0.076-0.679-0.231
					c-0.186-0.15-0.4-0.379-0.641-0.682c-0.196-0.254-0.426-0.457-0.693-0.609c-0.266-0.152-0.627-0.227-1.083-0.227
					c-0.469,0-0.857,0.098-1.168,0.299c-0.31,0.199-0.465,0.447-0.465,0.744c0,0.273,0.114,0.496,0.341,0.67
					c0.228,0.176,0.535,0.32,0.922,0.434c0.386,0.113,0.917,0.252,1.596,0.416c0.803,0.197,1.46,0.432,1.97,0.703
					c0.509,0.272,0.896,0.594,1.16,0.965C311.61,779.801,311.741,780.223,311.741,780.697z"/>
				<path style="fill:#505050;" d="M314.39,772.34c-0.361,0-0.669-0.111-0.926-0.332c-0.256-0.221-0.385-0.535-0.385-0.941
					c0-0.367,0.131-0.668,0.394-0.906c0.263-0.238,0.569-0.358,0.917-0.358c0.336,0,0.633,0.108,0.893,0.324
					c0.26,0.215,0.39,0.527,0.39,0.939c0,0.4-0.128,0.711-0.381,0.936C315.039,772.227,314.738,772.34,314.39,772.34z
					 M315.672,775.018v7.494c0,0.52-0.124,0.912-0.371,1.178c-0.248,0.266-0.56,0.398-0.94,0.398c-0.38,0-0.689-0.135-0.926-0.408
					c-0.238-0.271-0.356-0.662-0.356-1.168v-7.418c0-0.512,0.118-0.898,0.356-1.158c0.237-0.26,0.546-0.391,0.926-0.391
					c0.38,0,0.693,0.131,0.94,0.391C315.549,774.195,315.672,774.557,315.672,775.018z"/>
				<path style="fill:#505050;" d="M327.031,775.445v7.531c0,0.861-0.093,1.603-0.277,2.225c-0.182,0.619-0.477,1.133-0.883,1.537
					c-0.405,0.404-0.936,0.707-1.59,0.902c-0.655,0.197-1.471,0.295-2.446,0.295c-0.893,0-1.69-0.125-2.394-0.375
					c-0.702-0.252-1.243-0.574-1.624-0.969c-0.379-0.396-0.57-0.803-0.57-1.221c0-0.316,0.108-0.576,0.324-0.773
					c0.215-0.201,0.475-0.301,0.778-0.301c0.38,0,0.712,0.168,0.998,0.504c0.139,0.17,0.283,0.344,0.432,0.518
					c0.149,0.176,0.315,0.324,0.494,0.447c0.181,0.123,0.397,0.215,0.65,0.275c0.253,0.059,0.545,0.09,0.874,0.09
					c0.671,0,1.192-0.094,1.563-0.281c0.371-0.185,0.63-0.447,0.779-0.783c0.149-0.334,0.236-0.693,0.261-1.078
					c0.025-0.383,0.044-0.998,0.057-1.848c-0.399,0.559-0.859,0.982-1.382,1.273c-0.522,0.291-1.145,0.438-1.866,0.438
					c-0.868,0-1.625-0.223-2.275-0.666c-0.648-0.443-1.148-1.063-1.495-1.861c-0.349-0.799-0.522-1.719-0.522-2.764
					c0-0.777,0.105-1.482,0.317-2.107c0.213-0.629,0.515-1.156,0.907-1.588c0.393-0.43,0.845-0.754,1.358-0.973
					c0.513-0.219,1.076-0.328,1.691-0.328c0.734,0,1.371,0.142,1.909,0.422c0.538,0.283,1.039,0.725,1.5,1.326v-0.352
					c0-0.449,0.11-0.797,0.332-1.045c0.222-0.246,0.507-0.371,0.855-0.371c0.5,0,0.832,0.164,0.997,0.49
					C326.948,774.361,327.031,774.832,327.031,775.445z M319.518,778.732c0,1.051,0.229,1.846,0.688,2.383
					c0.459,0.539,1.053,0.809,1.781,0.809c0.43,0,0.837-0.117,1.22-0.348c0.384-0.23,0.695-0.58,0.937-1.045
					c0.24-0.465,0.361-1.029,0.361-1.695c0-1.057-0.232-1.881-0.698-2.469c-0.466-0.588-1.078-0.883-1.838-0.883
					c-0.741,0-1.335,0.281-1.78,0.846C319.741,776.893,319.518,777.693,319.518,778.732z"/>
				<path style="fill:#505050;" d="M331.152,774.981v0.313c0.455-0.602,0.954-1.043,1.496-1.324
					c0.542-0.281,1.163-0.424,1.866-0.424c0.684,0,1.295,0.15,1.833,0.447c0.538,0.299,0.941,0.719,1.206,1.262
					c0.172,0.318,0.282,0.66,0.333,1.027c0.051,0.367,0.077,0.836,0.077,1.406v4.824c0,0.52-0.119,0.912-0.357,1.178
					c-0.237,0.266-0.546,0.398-0.926,0.398c-0.387,0-0.7-0.135-0.94-0.408c-0.241-0.271-0.361-0.662-0.361-1.168v-4.322
					c0-0.854-0.119-1.508-0.356-1.961c-0.238-0.451-0.711-0.68-1.42-0.68c-0.461,0-0.883,0.139-1.263,0.414
					s-0.659,0.654-0.836,1.135c-0.126,0.387-0.19,1.107-0.19,2.166v3.248c0,0.525-0.123,0.92-0.365,1.184
					c-0.244,0.262-0.559,0.393-0.945,0.393c-0.375,0-0.681-0.135-0.922-0.408c-0.24-0.271-0.361-0.662-0.361-1.168v-7.494
					c0-0.494,0.107-0.863,0.323-1.107c0.215-0.242,0.51-0.365,0.883-0.365c0.229,0,0.435,0.055,0.619,0.162
					c0.183,0.109,0.331,0.27,0.441,0.484C331.097,774.406,331.152,774.67,331.152,774.981z"/>
				<path style="fill:#505050;" d="M346.926,779.455h-5.071c0.007,0.588,0.124,1.107,0.356,1.557
					c0.231,0.449,0.538,0.789,0.921,1.016c0.382,0.229,0.805,0.342,1.267,0.342c0.31,0,0.594-0.035,0.851-0.107
					c0.255-0.074,0.504-0.188,0.746-0.344c0.24-0.154,0.461-0.32,0.665-0.498c0.202-0.178,0.464-0.42,0.788-0.723
					c0.133-0.113,0.323-0.172,0.57-0.172c0.266,0,0.481,0.074,0.646,0.221c0.165,0.146,0.247,0.35,0.247,0.617
					c0,0.234-0.091,0.506-0.275,0.82c-0.184,0.314-0.461,0.615-0.832,0.902c-0.371,0.289-0.835,0.527-1.396,0.717
					c-0.561,0.191-1.205,0.285-1.933,0.285c-1.665,0-2.96-0.475-3.885-1.424c-0.923-0.949-1.386-2.238-1.386-3.865
					c0-0.768,0.114-1.479,0.342-2.133c0.228-0.656,0.561-1.217,0.998-1.685c0.437-0.469,0.975-0.828,1.614-1.078
					s1.349-0.375,2.128-0.375c1.013,0,1.881,0.213,2.606,0.641c0.726,0.428,1.269,0.98,1.63,1.656
					c0.36,0.678,0.542,1.369,0.542,2.07c0,0.654-0.187,1.076-0.561,1.27C348.13,779.357,347.604,779.455,346.926,779.455z
					 M341.855,777.982h4.701c-0.063-0.887-0.302-1.551-0.717-1.99c-0.415-0.441-0.961-0.66-1.638-0.66
					c-0.647,0-1.177,0.223-1.592,0.668C342.194,776.447,341.944,777.107,341.855,777.982z"/>
				<path style="fill:#505050;" d="M357.496,782.607v-0.258c-0.348,0.398-0.691,0.725-1.03,0.973
					c-0.339,0.252-0.706,0.441-1.102,0.57c-0.395,0.133-0.828,0.195-1.296,0.195c-0.622,0-1.196-0.131-1.724-0.393
					c-0.529-0.264-0.986-0.639-1.372-1.127c-0.387-0.486-0.679-1.059-0.878-1.719c-0.2-0.658-0.299-1.371-0.299-2.137
					c0-1.621,0.396-2.885,1.187-3.791c0.792-0.904,1.833-1.357,3.125-1.357c0.747,0,1.377,0.129,1.89,0.385
					c0.513,0.256,1.013,0.652,1.5,1.182v-3.826c0-0.533,0.106-0.934,0.319-1.207c0.212-0.272,0.515-0.408,0.907-0.408
					c0.392,0,0.694,0.125,0.907,0.375c0.212,0.252,0.318,0.619,0.318,1.107v11.436c0,0.494-0.114,0.863-0.342,1.111
					c-0.228,0.246-0.522,0.369-0.883,0.369c-0.355,0-0.648-0.127-0.879-0.383C357.612,783.447,357.496,783.082,357.496,782.607z
					 M352.396,778.799c0,0.703,0.108,1.301,0.327,1.795c0.218,0.494,0.518,0.865,0.898,1.115c0.379,0.25,0.794,0.377,1.243,0.377
					c0.457,0,0.873-0.119,1.249-0.357c0.377-0.236,0.678-0.602,0.902-1.092c0.225-0.49,0.337-1.105,0.337-1.838
					c0-0.691-0.112-1.285-0.337-1.783c-0.224-0.496-0.528-0.875-0.912-1.139c-0.384-0.262-0.803-0.393-1.259-0.393
					c-0.474,0-0.899,0.135-1.272,0.402c-0.373,0.27-0.663,0.654-0.869,1.158C352.499,777.549,352.396,778.133,352.396,778.799z"/>
				<path style="fill:#505050;" d="M368.094,771.172v3.959c0.487-0.506,0.984-0.895,1.491-1.162c0.506-0.27,1.134-0.404,1.881-0.404
					c0.861,0,1.616,0.205,2.266,0.611c0.648,0.41,1.151,1.002,1.51,1.777c0.357,0.775,0.537,1.695,0.537,2.76
					c0,0.785-0.1,1.504-0.299,2.16c-0.2,0.656-0.49,1.225-0.869,1.705c-0.38,0.48-0.841,0.853-1.382,1.117
					c-0.542,0.262-1.139,0.393-1.79,0.393c-0.399,0-0.775-0.047-1.125-0.143c-0.352-0.094-0.651-0.219-0.898-0.375
					c-0.246-0.154-0.457-0.314-0.631-0.479c-0.174-0.164-0.404-0.412-0.689-0.742v0.258c0,0.486-0.117,0.855-0.352,1.107
					c-0.233,0.25-0.531,0.373-0.893,0.373c-0.367,0-0.66-0.123-0.878-0.373c-0.219-0.252-0.328-0.621-0.328-1.107v-11.322
					c0-0.525,0.106-0.924,0.317-1.191c0.212-0.27,0.509-0.404,0.889-0.404c0.399,0,0.706,0.129,0.921,0.385
					C367.986,770.332,368.094,770.695,368.094,771.172z M368.218,778.875c0,1.031,0.236,1.824,0.707,2.377
					c0.472,0.555,1.091,0.834,1.857,0.834c0.652,0,1.214-0.283,1.686-0.852c0.472-0.566,0.707-1.379,0.707-2.436
					c0-0.684-0.097-1.273-0.294-1.768c-0.197-0.494-0.475-0.875-0.835-1.145c-0.361-0.268-0.783-0.402-1.264-0.402
					c-0.494,0-0.935,0.135-1.32,0.402c-0.386,0.27-0.69,0.658-0.912,1.168C368.329,777.565,368.218,778.172,368.218,778.875z"/>
				<path style="fill:#505050;" d="M379.14,784.412l0.237-0.58l-3.191-8.035c-0.196-0.461-0.295-0.799-0.295-1.008
					c0-0.221,0.058-0.426,0.171-0.615c0.114-0.191,0.271-0.344,0.47-0.457c0.2-0.115,0.407-0.172,0.623-0.172
					c0.373,0,0.655,0.119,0.846,0.357c0.19,0.236,0.357,0.576,0.503,1.02l2.194,6.383l2.08-5.936
					c0.164-0.48,0.313-0.857,0.446-1.131c0.133-0.271,0.273-0.455,0.422-0.549c0.148-0.096,0.359-0.145,0.632-0.145
					c0.197,0,0.385,0.053,0.565,0.158c0.18,0.103,0.319,0.244,0.417,0.422c0.098,0.178,0.148,0.363,0.148,0.56
					c-0.026,0.119-0.066,0.291-0.124,0.514c-0.058,0.221-0.126,0.447-0.208,0.674l-3.381,8.852
					c-0.292,0.779-0.577,1.389-0.855,1.832c-0.279,0.443-0.647,0.785-1.106,1.022c-0.46,0.238-1.078,0.357-1.857,0.357
					c-0.759,0-1.33-0.082-1.708-0.246c-0.381-0.166-0.57-0.467-0.57-0.904c0-0.297,0.089-0.527,0.271-0.688
					c0.18-0.162,0.448-0.244,0.801-0.244c0.14,0,0.276,0.019,0.409,0.059c0.165,0.037,0.307,0.057,0.427,0.057
					c0.297,0,0.532-0.043,0.704-0.133c0.17-0.088,0.324-0.242,0.46-0.461C378.806,785.158,378.963,784.836,379.14,784.412z"/>
			</g>
			<g>
				<path style="fill:#505050;" d="M416.703,773.769h0.618v-0.777c0-0.815,0.1-1.457,0.307-1.938
					c0.204-0.479,0.556-0.826,1.047-1.045c0.49-0.217,1.163-0.326,2.017-0.326c1.52,0,2.273,0.367,2.273,1.113
					c0,0.238-0.079,0.445-0.24,0.615c-0.154,0.17-0.343,0.256-0.558,0.256c-0.1,0-0.278-0.018-0.527-0.059
					c-0.237-0.033-0.452-0.057-0.623-0.057c-0.468,0-0.767,0.141-0.905,0.416c-0.127,0.275-0.195,0.668-0.195,1.183v0.617h0.633
					c0.991,0,1.481,0.297,1.481,0.897c0,0.418-0.127,0.69-0.393,0.805c-0.262,0.113-0.624,0.17-1.089,0.17h-0.633v6.871
					c0,0.512-0.12,0.9-0.369,1.168c-0.241,0.273-0.554,0.406-0.942,0.406c-0.367,0-0.671-0.133-0.918-0.406
					c-0.244-0.268-0.364-0.656-0.364-1.168v-6.871h-0.714c-0.389,0-0.683-0.084-0.893-0.262c-0.209-0.17-0.315-0.398-0.315-0.678
					C415.399,774.078,415.834,773.769,416.703,773.769"/>
				<path style="fill:#505050;" d="M425.192,780.344v2.168c0,0.523-0.133,0.92-0.374,1.18c-0.247,0.266-0.559,0.394-0.938,0.394
					c-0.382,0-0.688-0.131-0.927-0.4c-0.236-0.264-0.36-0.656-0.36-1.174v-7.223c0-1.166,0.42-1.748,1.261-1.748
					c0.434,0,0.743,0.135,0.934,0.408c0.189,0.273,0.295,0.674,0.317,1.207c0.308-0.533,0.624-0.934,0.948-1.207
					c0.332-0.273,0.763-0.408,1.31-0.408c0.549,0,1.072,0.135,1.585,0.408c0.516,0.273,0.772,0.637,0.772,1.084
					c0,0.315-0.11,0.58-0.326,0.781c-0.22,0.209-0.454,0.313-0.706,0.313c-0.1,0-0.331-0.063-0.692-0.18
					c-0.365-0.113-0.689-0.174-0.963-0.174c-0.38,0-0.692,0.104-0.932,0.299c-0.242,0.205-0.431,0.496-0.564,0.887
					c-0.129,0.395-0.219,0.865-0.272,1.404C425.215,778.904,425.192,779.566,425.192,780.344"/>
				<path style="fill:#505050;" d="M437.113,779.451h-5.074c0.009,0.588,0.124,1.111,0.354,1.559
					c0.235,0.447,0.54,0.787,0.925,1.017c0.385,0.227,0.804,0.34,1.268,0.34c0.311,0,0.593-0.033,0.85-0.111
					c0.254-0.07,0.505-0.186,0.745-0.342c0.242-0.152,0.46-0.318,0.664-0.5c0.202-0.174,0.467-0.416,0.79-0.719
					c0.135-0.113,0.324-0.174,0.568-0.174c0.269,0,0.481,0.074,0.649,0.223c0.166,0.147,0.243,0.35,0.243,0.617
					c0,0.234-0.089,0.508-0.268,0.818c-0.188,0.318-0.463,0.617-0.836,0.906c-0.374,0.285-0.839,0.527-1.397,0.715
					c-0.56,0.189-1.206,0.285-1.932,0.285c-1.671,0-2.964-0.473-3.887-1.422c-0.924-0.951-1.392-2.242-1.392-3.867
					c0-0.768,0.117-1.478,0.348-2.135c0.225-0.658,0.558-1.217,0.999-1.688c0.436-0.471,0.97-0.828,1.612-1.078
					c0.638-0.25,1.347-0.375,2.128-0.375c1.011,0,1.881,0.215,2.606,0.647c0.724,0.422,1.273,0.976,1.629,1.654
					c0.361,0.68,0.542,1.367,0.542,2.074c0,0.648-0.189,1.07-0.562,1.266C438.315,779.356,437.791,779.451,437.113,779.451
					 M432.039,777.977h4.701c-0.063-0.885-0.298-1.549-0.714-1.986c-0.418-0.441-0.959-0.66-1.641-0.66
					c-0.645,0-1.177,0.221-1.592,0.67C432.38,776.445,432.126,777.104,432.039,777.977"/>
				<path style="fill:#505050;" d="M447.9,779.451h-5.073c0.006,0.588,0.125,1.111,0.354,1.559c0.232,0.447,0.539,0.787,0.921,1.017
					c0.383,0.227,0.806,0.34,1.272,0.34c0.308,0,0.593-0.033,0.845-0.111c0.259-0.07,0.506-0.186,0.75-0.342
					c0.242-0.152,0.46-0.318,0.664-0.5c0.199-0.174,0.464-0.416,0.788-0.719c0.135-0.113,0.326-0.174,0.568-0.174
					c0.268,0,0.483,0.074,0.65,0.223c0.165,0.147,0.24,0.35,0.24,0.617c0,0.234-0.087,0.508-0.273,0.818
					c-0.177,0.318-0.455,0.617-0.83,0.906c-0.37,0.285-0.84,0.527-1.396,0.715c-0.558,0.189-1.208,0.285-1.935,0.285
					c-1.667,0-2.959-0.473-3.887-1.422c-0.924-0.951-1.389-2.242-1.389-3.867c0-0.768,0.116-1.478,0.348-2.135
					c0.227-0.658,0.559-1.217,0.996-1.688c0.436-0.471,0.973-0.828,1.614-1.078c0.638-0.25,1.351-0.375,2.129-0.375
					c1.009,0,1.878,0.215,2.613,0.647c0.72,0.422,1.266,0.976,1.621,1.654c0.359,0.68,0.545,1.367,0.545,2.074
					c0,0.648-0.191,1.07-0.561,1.266C449.101,779.356,448.576,779.451,447.9,779.451 M442.827,777.977h4.701
					c-0.064-0.885-0.304-1.549-0.715-1.986c-0.421-0.441-0.962-0.66-1.643-0.66c-0.646,0-1.176,0.221-1.593,0.67
					C443.165,776.445,442.911,777.104,442.827,777.977"/>
				<path style="fill:#505050;" d="M453.58,775v0.31c0.486-0.602,0.994-1.043,1.524-1.324c0.518-0.285,1.118-0.428,1.782-0.428
					c0.795,0,1.535,0.209,2.207,0.617c0.671,0.414,1.198,1.016,1.589,1.807c0.39,0.795,0.586,1.73,0.586,2.814
					c0,0.795-0.112,1.531-0.336,2.201c-0.224,0.668-0.537,1.227-0.929,1.68c-0.393,0.449-0.855,0.801-1.39,1.045
					c-0.542,0.242-1.111,0.363-1.728,0.363c-0.738,0-1.364-0.148-1.865-0.447c-0.503-0.291-0.982-0.732-1.441-1.305v3.893
					c0,1.135-0.416,1.709-1.244,1.709c-0.49,0-0.809-0.146-0.972-0.439c-0.151-0.299-0.233-0.723-0.233-1.291v-11.193
					c0-0.494,0.106-0.859,0.32-1.107c0.215-0.238,0.512-0.363,0.885-0.363c0.369,0,0.666,0.125,0.896,0.373
					C453.467,774.168,453.58,774.525,453.58,775 M458.664,778.768c0-0.686-0.107-1.273-0.315-1.764
					c-0.209-0.492-0.499-0.867-0.866-1.127c-0.367-0.264-0.782-0.396-1.232-0.396c-0.714,0-1.318,0.283-1.809,0.844
					c-0.492,0.566-0.739,1.395-0.739,2.492c0,1.027,0.244,1.834,0.735,2.406c0.487,0.574,1.086,0.859,1.813,0.859
					c0.429,0,0.83-0.127,1.197-0.373c0.371-0.252,0.665-0.627,0.884-1.127C458.553,780.08,458.664,779.475,458.664,778.768"/>
				<path style="fill:#505050;" d="M463.88,772.334c-0.362,0-0.669-0.115-0.923-0.336c-0.26-0.223-0.388-0.531-0.388-0.935
					c0-0.369,0.131-0.67,0.397-0.91c0.262-0.234,0.566-0.355,0.914-0.355c0.34,0,0.636,0.105,0.893,0.318
					c0.26,0.219,0.391,0.535,0.391,0.947c0,0.398-0.127,0.711-0.378,0.935C464.532,772.219,464.231,772.334,463.88,772.334
					 M465.164,775.012v7.502c0,0.516-0.124,0.908-0.37,1.172c-0.25,0.27-0.56,0.4-0.941,0.4c-0.381,0-0.684-0.133-0.928-0.406
					c-0.233-0.275-0.355-0.664-0.355-1.166v-7.428c0-0.51,0.122-0.894,0.355-1.154c0.243-0.264,0.547-0.391,0.928-0.391
					c0.381,0,0.691,0.127,0.941,0.391C465.04,774.191,465.164,774.555,465.164,775.012"/>
				<path style="fill:#505050;" d="M473.523,782.902l-2.284-3.766l-1.408,1.328v2.067c0,0.498-0.133,0.881-0.396,1.148
					c-0.257,0.273-0.566,0.406-0.906,0.406c-0.398,0-0.715-0.131-0.94-0.4c-0.227-0.264-0.344-0.656-0.344-1.174v-11.063
					c0-0.574,0.114-1.012,0.331-1.314c0.223-0.305,0.545-0.451,0.953-0.451c0.399,0,0.713,0.137,0.949,0.41
					c0.234,0.271,0.354,0.674,0.354,1.203v6.293l2.916-3.063c0.362-0.377,0.633-0.641,0.827-0.779
					c0.19-0.139,0.419-0.207,0.69-0.207c0.326,0,0.594,0.103,0.815,0.309c0.211,0.205,0.32,0.465,0.32,0.773
					c0,0.379-0.353,0.889-1.055,1.521l-1.377,1.262l2.659,4.183c0.193,0.313,0.339,0.543,0.424,0.705
					c0.084,0.16,0.13,0.32,0.13,0.463c0,0.412-0.114,0.734-0.341,0.975c-0.225,0.236-0.523,0.353-0.886,0.353
					c-0.316,0-0.564-0.08-0.733-0.256C474.051,783.658,473.813,783.348,473.523,782.902"/>
				<path style="fill:#505050;" d="M479.159,784.086c-0.392,0-0.728-0.125-1.014-0.381c-0.284-0.248-0.429-0.605-0.429-1.064
					c0-0.385,0.138-0.719,0.41-0.994c0.274-0.279,0.607-0.42,1.008-0.42c0.397,0,0.735,0.141,1.022,0.412
					c0.279,0.275,0.422,0.613,0.422,1.002c0,0.453-0.143,0.809-0.422,1.061C479.87,783.961,479.538,784.086,479.159,784.086"/>
				<path style="fill:#505050;" d="M492.058,780.877c0,0.32-0.097,0.668-0.291,1.033c-0.191,0.371-0.488,0.719-0.886,1.051
					c-0.395,0.332-0.892,0.602-1.495,0.803c-0.6,0.203-1.28,0.307-2.03,0.307c-1.607,0-2.858-0.469-3.758-1.4
					c-0.896-0.936-1.346-2.189-1.346-3.76c0-1.068,0.204-2.006,0.619-2.824c0.407-0.814,1.004-1.447,1.781-1.894
					c0.779-0.447,1.716-0.67,2.794-0.67c0.674,0,1.288,0.098,1.853,0.295c0.561,0.195,1.032,0.451,1.425,0.76
					c0.387,0.314,0.686,0.643,0.89,0.992c0.207,0.352,0.308,0.68,0.308,0.986c0,0.309-0.113,0.572-0.343,0.787
					c-0.235,0.215-0.516,0.324-0.839,0.324c-0.219,0-0.397-0.057-0.541-0.166c-0.143-0.111-0.305-0.289-0.478-0.541
					c-0.317-0.478-0.647-0.842-0.996-1.08c-0.343-0.242-0.78-0.361-1.313-0.361c-0.762,0-1.384,0.297-1.854,0.897
					c-0.468,0.596-0.703,1.42-0.703,2.455c0,0.488,0.063,0.94,0.183,1.348c0.117,0.406,0.291,0.756,0.52,1.043
					c0.23,0.287,0.504,0.506,0.826,0.654c0.324,0.154,0.681,0.227,1.064,0.227c0.521,0,0.967-0.121,1.337-0.361
					c0.376-0.24,0.702-0.607,0.986-1.102c0.158-0.291,0.327-0.517,0.509-0.684c0.183-0.164,0.409-0.25,0.676-0.25
					c0.316,0,0.58,0.123,0.786,0.363C491.951,780.348,492.058,780.606,492.058,780.877"/>
				<path style="fill:#505050;" d="M503.248,778.816c0,0.769-0.122,1.484-0.355,2.139c-0.247,0.652-0.592,1.213-1.05,1.678
					c-0.455,0.469-1.002,0.828-1.632,1.08c-0.64,0.248-1.35,0.375-2.139,0.375c-0.785,0-1.493-0.127-2.121-0.383
					c-0.623-0.248-1.171-0.613-1.626-1.082c-0.461-0.477-0.809-1.033-1.052-1.676c-0.229-0.645-0.35-1.356-0.35-2.131
					c0-0.787,0.124-1.506,0.358-2.158c0.242-0.654,0.589-1.213,1.039-1.674c0.451-0.461,0.993-0.816,1.631-1.07
					c0.643-0.248,1.35-0.373,2.121-0.373c0.784,0,1.498,0.125,2.139,0.381c0.638,0.252,1.183,0.615,1.644,1.08
					c0.458,0.475,0.803,1.029,1.04,1.672C503.128,777.324,503.248,778.033,503.248,778.816 M500.645,778.816
					c0-1.059-0.234-1.881-0.698-2.469c-0.463-0.596-1.09-0.889-1.874-0.889c-0.508,0-0.955,0.133-1.343,0.395
					c-0.387,0.262-0.681,0.648-0.89,1.164c-0.209,0.514-0.315,1.113-0.315,1.799c0,0.678,0.103,1.268,0.31,1.773
					c0.208,0.51,0.502,0.897,0.886,1.166c0.386,0.266,0.835,0.404,1.353,0.404c0.784,0,1.411-0.297,1.874-0.893
					C500.41,780.678,500.645,779.857,500.645,778.816"/>
				<path style="fill:#505050;" d="M513.14,779.006v3.447c0,0.547-0.12,0.951-0.369,1.227c-0.25,0.273-0.571,0.408-0.978,0.408
					c-0.393,0-0.714-0.135-0.951-0.408c-0.247-0.275-0.372-0.68-0.372-1.227v-4.131c0-0.654-0.021-1.162-0.063-1.525
					c-0.046-0.353-0.168-0.654-0.362-0.883c-0.196-0.234-0.509-0.352-0.931-0.352c-0.851,0-1.407,0.291-1.677,0.881
					c-0.268,0.576-0.406,1.414-0.406,2.508v3.502c0,0.537-0.122,0.945-0.361,1.223c-0.249,0.273-0.567,0.412-0.965,0.412
					c-0.396,0-0.717-0.139-0.967-0.412c-0.252-0.277-0.376-0.686-0.376-1.223v-7.42c0-0.488,0.111-0.859,0.335-1.111
					c0.229-0.256,0.526-0.381,0.89-0.381c0.357,0,0.651,0.123,0.892,0.355c0.236,0.238,0.355,0.566,0.355,0.984v0.244
					c0.453-0.535,0.935-0.932,1.444-1.18c0.517-0.26,1.082-0.387,1.713-0.387c0.651,0,1.211,0.131,1.678,0.391
					c0.47,0.26,0.854,0.654,1.16,1.176c0.44-0.527,0.909-0.922,1.41-1.18c0.5-0.258,1.053-0.387,1.662-0.387
					c0.706,0,1.321,0.143,1.834,0.42c0.51,0.277,0.893,0.68,1.147,1.195c0.221,0.473,0.33,1.209,0.33,2.217v5.063
					c0,0.547-0.122,0.951-0.367,1.227c-0.246,0.273-0.575,0.408-0.98,0.408c-0.395,0-0.714-0.139-0.965-0.412
					c-0.25-0.277-0.376-0.686-0.376-1.223v-4.361c0-0.559-0.023-1.004-0.069-1.338c-0.047-0.338-0.177-0.621-0.383-0.848
					c-0.212-0.227-0.53-0.344-0.953-0.344c-0.342,0-0.666,0.107-0.974,0.309c-0.307,0.197-0.547,0.477-0.721,0.813
					C513.238,777.121,513.14,777.896,513.14,779.006"/>
			</g>
			<g>
				<path style="fill:#505050;" d="M392.435,778.188c-0.002-0.004-0.002-0.01-0.002-0.018
					C392.433,778.178,392.433,778.184,392.435,778.188z"/>
				<path style="fill:#505050;" d="M392.566,779.018c0.002,0,0.002,0,0.003,0c-0.05-0.236-0.088-0.471-0.119-0.703
					C392.48,778.549,392.519,778.783,392.566,779.018z"/>
				<path style="fill:#505050;" d="M393.424,781.424c-0.006-0.01-0.011-0.022-0.017-0.033
					C393.414,781.402,393.418,781.414,393.424,781.424z"/>
				<path style="fill:#505050;" d="M393.342,781.264c-0.022-0.045-0.044-0.09-0.065-0.135
					C393.298,781.176,393.32,781.219,393.342,781.264z"/>
				<path style="fill:#505050;" d="M392.807,779.943c0.127,0.4,0.28,0.789,0.457,1.158c-0.18-0.377-0.33-0.766-0.454-1.158
					C392.81,779.943,392.808,779.943,392.807,779.943z"/>
				<path style="fill:#505050;" d="M402.473,768.252c0.501,0,0.871,0.039,1.295,0.111l0.12-0.764c0,0-1.171-0.359-2.71-0.234
					l-0.121-0.414c0.479-0.102,0.838-0.527,0.838-1.035c0-0.582-0.475-1.053-1.058-1.053s-1.056,0.471-1.056,1.053
					c0,0.508,0.358,0.934,0.836,1.035l0.134,0.463c-1.634,0.225-2.935,0.861-2.935,0.861l0.23,0.705
					c0.989-0.328,1.846-0.529,2.624-0.613C401.432,768.287,402.006,768.252,402.473,768.252z"/>
				<path style="fill:#505050;" d="M393.405,772.109l0.006-0.008c0.039-0.049,0.076-0.096,0.113-0.143l-0.313-0.225l-0.488-0.357
					c-0.027,0.039-0.795,0.744-1.401,2.049c-0.025-0.041-0.056-0.082-0.09-0.119c-0.182-0.199-0.436-0.301-0.758-0.295
					c-0.004,0-0.009,0-0.015,0c-0.2,0-0.337-0.066-0.427-0.147c0.089-0.113,0.143-0.256,0.143-0.414c0-0.367-0.3-0.668-0.669-0.668
					c-0.369,0-0.668,0.301-0.668,0.668c0,0.371,0.3,0.67,0.668,0.67c0.058,0,0.113-0.01,0.167-0.021
					c0.165,0.184,0.425,0.342,0.808,0.334c0.197-0.002,0.341,0.049,0.438,0.156c0.111,0.121,0.148,0.295,0.16,0.428
					c-0.001,0.002-0.001,0.004-0.003,0.004c-0.435,1.189-0.311,2.67-0.311,2.67l1.057,0.043c0.021-0.539,0.099-1.482,0.372-2.23
					C392.719,773.055,393.378,772.148,393.405,772.109z"/>
				<path style="fill:#505050;" d="M411.672,769.135c-0.368,0-0.669,0.299-0.669,0.67c0,0.057,0.009,0.111,0.023,0.164
					c-0.184,0.166-0.343,0.428-0.337,0.81c0.003,0.197-0.048,0.34-0.154,0.438c-0.085,0.074-0.191,0.115-0.296,0.141
					c-0.787-1.104-1.756-1.775-1.756-1.775l-0.759,0.813c0.573,0.522,1.159,1.176,1.729,1.99c0.394,0.564,0.799,1.291,1.136,2.016
					l1.024-0.486c0,0-0.468-1.156-1.126-2.191c0.114-0.041,0.229-0.104,0.331-0.193c0.2-0.18,0.299-0.435,0.293-0.758
					c-0.002-0.207,0.066-0.348,0.148-0.441c0.114,0.088,0.257,0.143,0.412,0.143c0.371,0,0.67-0.299,0.67-0.668
					C412.342,769.434,412.043,769.135,411.672,769.135z"/>
				<path style="fill:#505050;" d="M409.015,778.338c-1.409,0.685-3.728,1.594-6.781,2.02c-1.198,0.166-2.359,0.227-3.428,0.227
					c-1.391,0-2.62-0.103-3.563-0.223c-1.076-0.135-1.917-0.301-2.432-0.418c0.124,0.392,0.274,0.781,0.454,1.158
					c0.003,0.01,0.008,0.021,0.013,0.027c0.021,0.045,0.043,0.09,0.065,0.135c0.022,0.043,0.043,0.086,0.065,0.127
					c0.006,0.012,0.011,0.023,0.017,0.033c0.303,0.57,0.667,1.094,1.081,1.549c1.44,1.574,2.907,1.824,2.921,1.826l0.023,0.002
					l0.021,0.008c0.013,0.006,1.314,0.426,3.292,0.426c1.945,0,3.854-0.393,5.674-1.168c1.348-0.689,2.622-1.736,3.254-2.67
					c0.488-0.723,0.841-1.492,1.05-2.293c0.111-0.426,0.199-1.107,0.147-1.826C410.49,777.545,409.863,777.924,409.015,778.338z"/>
				<path style="fill:#505050;" d="M393.857,772.443c-0.041,0.06-0.652,0.926-1.135,2.254c-0.362,0.994-0.346,2.443-0.346,2.459
					v0.004c0,0.34,0.019,0.676,0.057,1.01c0,0.008,0,0.014,0.002,0.018c0.004,0.043,0.011,0.084,0.015,0.127
					c0.03,0.232,0.069,0.467,0.119,0.703c0.7,0.178,4.879,1.152,9.548,0.502c2.927-0.408,5.149-1.273,6.499-1.928
					c1.121-0.543,1.842-1.035,2.12-1.238c-0.277-1.027-1.042-2.641-1.743-3.647c-2.005-2.865-4.167-3.6-5.277-3.783
					c-0.424-0.068-0.763-0.109-1.243-0.109c-0.447,0-1.002,0.037-1.743,0.115c-0.743,0.076-1.572,0.271-2.532,0.596
					c-1.348,0.451-2.567,1.158-3.527,2.047l-0.033,0.031C394.496,771.734,394.199,772.01,393.857,772.443z M406.127,771.777
					c0.961,0,1.743,0.781,1.743,1.742c0,0.963-0.782,1.744-1.743,1.744c-0.962,0-1.742-0.781-1.742-1.744
					C404.385,772.559,405.165,771.777,406.127,771.777z M397.885,771.707c1.557,0,2.817,1.262,2.817,2.818
					c0,1.555-1.26,2.814-2.817,2.814c-1.555,0-2.816-1.26-2.816-2.814C395.069,772.969,396.331,771.707,397.885,771.707z"/>
			</g>
		</g>
		<g>
			<path style="fill:none;" d="M273.98,581.62l34.543-3.39c-0.495,0.008-0.991,0.005-1.487-0.022L273.98,581.62z"/>
			<path style="fill:none;" d="M313.831,577.509c-0.541,0.142-1.084,0.261-1.627,0.36l24.605-2.414l-5.17-0.422l1.253,0.508
				L313.831,577.509z"/>
			<polygon style="fill:#505050;" points="116,663.481 684,588.179 684,573.947 116,639.623 			"/>
			<path style="fill:#505050;" d="M675.701,542.207c-0.396-5.159-2.659-10.063-6.393-13.679c-1.534-1.13-3.065-2.259-4.596-3.389
				c-3.296-1.782-6.814-2.646-10.558-2.599c-4.095-0.075-8.245,1.367-11.664,3.719c-2.551-4.933-7.369-8.525-13.087-9.626
				c0.206-0.971,0.345-1.961,0.405-2.963c0.315-5.252-1.491-10.476-4.983-14.412c-1.35-1.166-2.699-2.327-4.047-3.491
				c-2.947-1.896-6.171-2.959-9.668-3.18l-5.085,0.347c-3.521,0.713-6.63,2.258-9.328,4.637c-3.214,2.852-5.412,6.684-6.282,10.853
				c-1.327-0.396-2.697-0.648-4.121-0.738c-4.339-0.414-8.885,1.195-12.295,3.878v40.356l-3,0.315v0.218l-73,7.188v-134.42
				l-66,4.295v136.601l-94.143,9.236l1.147-182.3l122.383-182.051L574,364.019v-9.664L461.491,197.204l0.248-0.337l-0.445,0.063
				L461,196.518v0.452l-197.899,27.698L147.139,372h185.754L461,197.872v12.605l0.374,0.508L337.58,383.336L167,382.272v179.311
				l2.065,0.169c2.1-7.707,8.619-14.127,16.664-15.273c-0.097-0.753-0.163-1.514-0.189-2.277c-0.23-6.587,2.194-13.073,6.691-17.896
				c3.083-3.286,6.779-5.583,11.086-6.892c2.1-0.344,4.2-0.688,6.3-1.033c4.388-0.139,8.533,0.801,12.435,2.818
				c1.821,1.292,3.642,2.581,5.462,3.873c1.591,1.485,2.965,3.167,4.106,4.989c1.774-0.568,3.612-0.919,5.534-0.992
				c4.275-0.148,8.395,1.093,11.86,3.333c4.654-6.672,12.171-11.298,20.676-11.298c11.562,0,21.851,6.893,25.773,17.24
				c0.396-0.302,0.783-0.614,1.188-0.905c3.311-2.018,6.904-3.1,10.776-3.246c1.871,0.174,3.741,0.346,5.612,0.519
				c3.873,0.887,7.269,2.683,10.187,5.386c5.683,5.299,8.172,13.382,6.472,20.958c-0.923,4.119-3.056,7.842-5.99,10.763l7.931,3.214
				l5.17,0.422l-24.605,2.414c-1.223,0.227-2.45,0.344-3.681,0.361l-34.543,3.39L116,597.92v8.214l568-62.567v-2.174
				L675.701,542.207z M483,491h4v32h-4V491z"/>
			<polygon style="fill:#505050;" points="410,430.053 367,433.352 367,475.207 410,471.299 			"/>
			<polygon style="fill:#505050;" points="410,518.635 410,475.611 367,479.52 367,522.93 			"/>
			<polygon style="fill:#505050;" points="516,504.206 551,500.448 551,462.797 516,465.978 			"/>
			<polygon style="fill:#505050;" points="551,421.463 516,424.351 516,461.665 551,458.484 			"/>
			<polygon style="fill:#505050;" points="410,316.775 410,390.862 445,387.654 445,314.22 			"/>
			<path style="fill:#505050;" d="M514,380.125v-69.076c0,0-19.9,0.894-31,1.944v70.052L514,380.125z"/>
			<polygon style="fill:#505050;" points="449,339.407 479,336.715 479,303.873 449,305.768 			"/>
			<polygon style="fill:#505050;" points="479,341.027 449,343.718 449,394.032 479,391.19 			"/>
			<polygon style="fill:#FFFFFF;" points="417.936,474.891 417.548,470.613 410,471.299 367,475.207 361.632,475.694 
				362.02,479.972 367,479.52 410,475.611 			"/>
			<rect x="483" y="491" style="fill:#FFFFFF;" width="4" height="32"/>
		</g>
	</g>
</g>
</svg>
